<?xml version="1.0" encoding="UTF-8" standalone="no"?><!DOCTYPE svg PUBLIC "-//W3C//DTD SVG 1.1//EN" "http://www.w3.org/Graphics/SVG/1.1/DTD/svg11.dtd"><svg width="100%" height="100%" viewBox="0 0 842 596" version="1.1" xmlns="http://www.w3.org/2000/svg" xmlns:xlink="http://www.w3.org/1999/xlink" xml:space="preserve" xmlns:serif="http://www.serif.com/" style="fill-rule:evenodd;clip-rule:evenodd;stroke-linejoin:round;stroke-miterlimit:2;"><rect x="0" y="0" width="841.89" height="595.276" style="fill:#f0ffe9;"/><clipPath id="_clip1"><rect x="228.006" y="41.638" width="385.877" height="385.877"/></clipPath><g clip-path="url(#_clip1)"><g><path d="M401.651,192.773l-115.763,0c-7.101,0.006 -12.855,5.761 -12.863,12.863l-6.431,0c-7.101,0.006 -12.855,5.761 -12.863,12.862l0,12.863c0.007,7.101 5.762,12.855 12.863,12.863l6.431,0l0,38.587l-6.431,0c-7.101,0.007 -12.855,5.762 -12.863,12.863l0,12.863c0.007,7.101 5.762,12.855 12.863,12.862l6.431,0c0.007,7.101 5.762,12.856 12.863,12.863l115.763,0c7.101,-0.007 12.855,-5.762 12.863,-12.863l0,-115.763c-0.008,-7.102 -5.762,-12.856 -12.863,-12.863Zm-128.626,115.763l-6.431,0l0,-12.863l6.431,0l0,12.863Zm0,-77.176l-6.431,0l0,-12.862l6.431,0l0,12.862Zm12.863,90.039l0,-115.763l115.763,0l0.009,115.763l-115.772,0Z" style="fill-rule:nonzero;"/><path d="M330.907,276.38l-25.725,0c-3.552,0 -6.431,2.879 -6.431,6.431c0,3.552 2.879,6.431 6.431,6.431l25.725,0c3.552,0 6.431,-2.879 6.431,-6.431c0,-3.552 -2.879,-6.431 -6.431,-6.431Z" style="fill-rule:nonzero;"/><path d="M330.907,295.674l-25.725,0c-3.552,0 -6.431,2.879 -6.431,6.431c0,3.552 2.879,6.431 6.431,6.431l25.725,0c3.552,0 6.431,-2.88 6.431,-6.431c0,-3.552 -2.879,-6.431 -6.431,-6.431Z" style="fill-rule:nonzero;"/><path d="M382.357,250.654c-3.552,0 -6.431,2.88 -6.431,6.431l0,12.863c0,3.552 2.879,6.431 6.431,6.431c3.552,0 6.431,-2.879 6.431,-6.431l0,-12.863c0,-3.551 -2.879,-6.431 -6.431,-6.431Z" style="fill-rule:nonzero;"/><path d="M536.708,179.911l-96.469,0c-7.101,0.006 -12.856,5.761 -12.863,12.862l0,51.45c0.007,7.101 5.762,12.855 12.863,12.863l96.469,0c7.101,-0.007 12.855,-5.762 12.863,-12.863l0,-51.45c-0.008,-7.101 -5.762,-12.856 -12.863,-12.862Zm-96.469,64.312l0,-51.45l96.469,0l0.009,51.45l-96.478,0Z" style="fill-rule:nonzero;"/><path d="M536.708,269.948l-96.469,0c-7.101,0.007 -12.856,5.762 -12.863,12.863l0,51.45c0.007,7.101 5.762,12.856 12.863,12.863l96.469,0c7.101,-0.007 12.855,-5.762 12.863,-12.863l0,-51.45c-0.008,-7.101 -5.762,-12.855 -12.863,-12.863Zm-96.469,64.313l0,-51.45l96.469,0l0.009,51.45l-96.478,0Z" style="fill-rule:nonzero;"/><path d="M498.12,295.674l-19.294,0c-3.552,0 -6.431,2.879 -6.431,6.431c0,3.552 2.88,6.431 6.431,6.431l19.294,0c3.552,0 6.431,-2.88 6.431,-6.431c0,-3.552 -2.879,-6.431 -6.431,-6.431Z" style="fill-rule:nonzero;"/><path d="M607.452,392.143l-45.018,0l0,-19.294c7.101,-0.007 12.855,-5.762 12.862,-12.863l0,-218.663l19.294,0c3.065,0 5.705,-2.163 6.306,-5.169l12.863,-64.312c0.378,-1.89 -0.111,-3.849 -1.332,-5.339c-1.221,-1.49 -3.047,-2.355 -4.973,-2.355l-45.019,0c-31.952,0.037 -57.844,25.93 -57.881,57.882l0,32.157l-64.315,0l0,-12.863c-0.028,-24.852 -20.168,-44.991 -45.019,-45.019l-6.431,0c0,-3.552 -2.88,-6.431 -6.431,-6.431l-77.176,0c-3.552,0 -6.431,2.879 -6.431,6.431l-64.314,0c-3.552,-0.002 -6.431,2.878 -6.431,6.43l0,25.725c0,3.552 2.879,6.431 6.431,6.431l19.294,0l0,19.294l-12.862,0c-7.101,0.008 -12.856,5.762 -12.863,12.863l0,192.938c0.007,7.101 5.762,12.856 12.863,12.863l0,19.294l-6.432,0c-3.552,0 -6.431,2.879 -6.431,6.431c0,3.552 2.879,6.431 6.431,6.431l373.015,0c3.552,0 6.431,-2.88 6.431,-6.431c0,-3.552 -2.879,-6.431 -6.431,-6.431Zm-32.156,-315.133l24.311,0l-10.29,51.45l-14.021,0l0,-51.45Zm-57.882,45.019c0.028,-24.851 20.167,-44.991 45.019,-45.019l0,51.45l-45.019,0l0,-6.431Zm0,19.294l45.019,0l0,12.863l-45.019,0l0,-12.863Zm-128.626,-32.157l6.431,0c17.751,0.021 32.136,14.406 32.157,32.157l0,12.863l-38.588,0l0,-45.02Zm-77.175,-6.431l64.312,0l0,25.725l-64.312,0l0,-25.725Zm-6.431,38.588l70.744,0l0,12.863l-109.332,0l0,-19.294l32.157,0c0,3.551 2.879,6.431 6.431,6.431Zm-64.313,-19.294l0,-12.863l57.882,0l0,12.863l-57.882,0Zm0,45.019l321.565,0l0.009,192.938l-321.574,0l0,-192.938Zm308.702,225.095l-295.84,0l0,-19.294l295.839,0l0,19.294l0.001,0Z" style="fill-rule:nonzero;"/></g></g><g transform="matrix(0.24,0,0,0.24,-167.38,22.3541)"><text x="880.105px" y="2103.3px" style="font-family:'Moon2.0-Bold', 'Moon 2.0';font-size:416.667px;fill:#0006ff;">c<tspan x="1095.11px 1334.27px " y="2103.3px 2103.3px ">an</tspan></text><text x="1541.36px" y="2103.3px" style="font-family:'Moon2.0-Bold', 'Moon 2.0';font-size:416.667px;">i</text><text x="1618.44px" y="2103.3px" style="font-family:'Moon2.0-Bold', 'Moon 2.0';font-size:416.667px;fill:#0006ff;">haz</text><text x="2277.61px" y="2103.3px" style="font-family:'Moon2.0-Bold', 'Moon 2.0';font-size:416.667px;">username</text></g></svg>